<svg width="70" height="70" viewBox="0 0 70 70" fill="none" xmlns="http://www.w3.org/2000/svg">
<circle cx="35" cy="35" r="35" fill="#9F2436"/>
<path d="M22.2001 45.3466H33.2401C33.5601 46.04 34.2534 46.4666 35.0001 46.4666C35.7467 46.4666 36.4934 45.9866 36.7601 45.3466H47.8001C48.1201 45.3466 48.3334 45.1333 48.3334 44.8133V25.4C48.3334 25.08 48.1201 24.8666 47.8001 24.8666H45.8801V24.0133C45.8801 23.6933 45.6667 23.48 45.3467 23.48H36.7067C36.0134 23.48 35.4267 23.8 35.0001 24.3333C34.5734 23.8 33.9867 23.48 33.2934 23.48H24.6534C24.3334 23.48 24.1201 23.6933 24.1201 24.0133V24.8666H22.2001C21.8801 24.8666 21.6667 25.08 21.6667 25.4V44.8666C21.6667 45.1333 21.8801 45.3466 22.2001 45.3466ZM35.5334 25.8266C35.5334 25.1333 36.0667 24.5466 36.7067 24.5466H44.8134V41.56H36.7067C36.6001 41.56 36.4934 41.6133 36.3867 41.6666L35.5334 42.3066V25.8266ZM25.1867 24.5466H33.2934C33.9334 24.5466 34.4667 25.1333 34.4667 25.8266V42.3066L33.6134 41.72C33.5067 41.6666 33.4001 41.6133 33.2934 41.6133H25.1867V24.5466ZM22.7334 25.9333H24.1201V42.1466C24.1201 42.4666 24.3334 42.68 24.6534 42.68H33.1334L34.6801 43.8C34.6801 43.8 34.6801 43.8 34.7334 43.8H34.7867H34.8401C34.8934 43.8 34.9467 43.8 34.9467 43.8C35.0001 43.8 35.0534 43.8 35.0534 43.8H35.1067H35.1601C35.1601 43.8 35.1601 43.8 35.2134 43.8L36.7601 42.68H45.2401C45.5601 42.68 45.7734 42.4666 45.7734 42.1466V25.9333H47.2667V44.3333H36.3867C36.1201 44.3333 35.9067 44.4933 35.8534 44.76C35.7467 45.1866 35.3734 45.4533 34.9467 45.4533C34.5201 45.4533 34.1467 45.1333 34.0401 44.76C33.9867 44.4933 33.7734 44.3333 33.5067 44.3333H22.7334V25.9333Z" fill="white"/>
<path d="M43.2133 26.7334H37.1333V27.8001H43.2133V26.7334Z" fill="white"/>
<path d="M43.2133 29.72H37.1333V30.7866H43.2133V29.72Z" fill="white"/>
<path d="M43.2133 32.7068H37.1333V33.7735H43.2133V32.7068Z" fill="white"/>
<path d="M43.2133 35.6934H37.1333V36.76H43.2133V35.6934Z" fill="white"/>
<path d="M43.2133 38.6799H37.1333V39.7466H43.2133V38.6799Z" fill="white"/>
<path d="M32.8666 26.7334H26.7866V27.8001H32.8666V26.7334Z" fill="white"/>
<path d="M32.8666 29.72H26.7866V30.7866H32.8666V29.72Z" fill="white"/>
<path d="M32.8666 32.7068H26.7866V33.7735H32.8666V32.7068Z" fill="white"/>
<path d="M32.8666 35.6934H26.7866V36.76H32.8666V35.6934Z" fill="white"/>
<path d="M32.8666 38.6799H26.7866V39.7466H32.8666V38.6799Z" fill="white"/>
</svg>
