<svg width="70" height="70" viewBox="0 0 70 70" fill="none" xmlns="http://www.w3.org/2000/svg">
<circle cx="35" cy="35" r="35" fill="#9F2436"/>
<g clip-path="url(#clip0_2017_1920)">
<path d="M50.1541 26.9539L46.7345 20.6042L44.2453 23.0933L47.6649 29.4431L50.1541 26.9539Z" fill="white"/>
<path d="M45.4054 31.7026L46.7769 30.3312L43.3573 23.9814L40.4331 26.9056L44.2635 29.0262L45.4054 31.7026Z" fill="white"/>
<path d="M36.0468 37.2732C38.1372 35.1828 38.0828 35.2915 38.0043 35.1949C37.0255 34.2222 36.9832 34.1255 36.9047 34.2222C34.8445 36.2763 34.8626 36.2099 34.9472 36.2944C35.9562 37.3034 35.9622 37.3578 36.0468 37.2732Z" fill="white"/>
<path d="M24.2656 46.9821C24.7144 47.4315 25.2475 47.788 25.8343 48.0312C26.421 48.2745 27.05 48.3997 27.6851 48.3997C28.3203 48.3997 28.9493 48.2745 29.536 48.0312C30.1228 47.788 30.6558 47.4315 31.1047 46.9821L44.487 33.5938C44.8797 33.2011 44.6924 33.0984 43.3149 29.8842L39.3153 27.6609C39.2006 27.5977 39.0684 27.5736 38.9387 27.5921C38.809 27.6106 38.6889 27.6708 38.5964 27.7636C27.4918 38.8681 27.9872 38.6204 26.8333 38.8379C22.5074 39.8227 21.7764 44.4929 24.2656 46.9821ZM31.6666 39.714C34.4458 36.9348 34.192 37.2369 34.0833 37.1523C33.8471 36.9098 33.7149 36.5846 33.7149 36.2461C33.7149 35.9075 33.8471 35.5824 34.0833 35.3398C35.9381 33.485 36.2039 33.0077 36.9531 33.0077C37.1371 33.0089 37.3188 33.0487 37.4864 33.1247C37.6539 33.2007 37.8037 33.3111 37.9258 33.4488C39.5812 31.7994 39.557 31.745 39.8833 31.745C40.0033 31.7443 40.1208 31.7794 40.2208 31.8457C40.3208 31.9121 40.3987 32.0067 40.4448 32.1175C40.4908 32.2283 40.5027 32.3504 40.4791 32.468C40.4555 32.5857 40.3974 32.6936 40.3122 32.7781C38.5662 34.5242 38.7595 34.2825 38.8441 34.3671C39.0817 34.6089 39.2149 34.9343 39.2149 35.2734C39.2149 35.6124 39.0817 35.9378 38.8441 36.1796L36.9047 38.125C36.7774 38.248 36.6268 38.3441 36.4616 38.4078C36.2965 38.4715 36.1203 38.5014 35.9434 38.4958C35.7665 38.4901 35.5926 38.4491 35.4318 38.375C35.2711 38.301 35.1269 38.1954 35.0076 38.0646L32.5064 40.5417C32.391 40.616 32.2537 40.6489 32.1171 40.6348C31.9805 40.6207 31.8528 40.5605 31.7551 40.4641C31.6573 40.3677 31.5952 40.2409 31.5792 40.1046C31.5631 39.9682 31.5939 39.8305 31.6666 39.714ZM26.2895 42.1306C26.5674 41.8524 26.9216 41.6629 27.3072 41.586C27.6929 41.5091 28.0926 41.5483 28.456 41.6987C28.8193 41.8491 29.1299 42.1039 29.3484 42.4308C29.5669 42.7577 29.6836 43.1421 29.6836 43.5353C29.6836 43.9286 29.5669 44.313 29.3484 44.6399C29.1299 44.9668 28.8193 45.2216 28.456 45.372C28.0926 45.5223 27.6929 45.5616 27.3072 45.4847C26.9216 45.4078 26.5674 45.2182 26.2895 44.94C25.9244 44.5692 25.7188 44.0703 25.7165 43.5499C25.7142 43.0295 25.9156 42.5288 26.2774 42.1548L26.2895 42.1306Z" fill="white"/>
<path d="M28.2349 43.0128C28.086 42.8831 27.8935 42.8148 27.6962 42.8216C27.4989 42.8284 27.3116 42.9098 27.172 43.0494C27.0324 43.189 26.951 43.3764 26.9442 43.5737C26.9374 43.7709 27.0057 43.9635 27.1353 44.1123C27.2842 44.242 27.4767 44.3103 27.674 44.3035C27.8713 44.2967 28.0587 44.2153 28.1982 44.0757C28.3378 43.9361 28.4192 43.7487 28.4261 43.5514C28.4329 43.3542 28.3645 43.1616 28.2349 43.0128Z" fill="white"/>
</g>
<defs>
<clipPath id="clip0_2017_1920">
<rect width="29" height="29" fill="white" transform="matrix(-1 0 0 -1 51 49)"/>
</clipPath>
</defs>
</svg>
