<svg width="70" height="70" viewBox="0 0 70 70" fill="none" xmlns="http://www.w3.org/2000/svg">
<circle cx="35" cy="35" r="35" fill="#9F2436"/>
<path d="M35.0001 48.9543C34.5051 48.962 34.0166 48.8399 33.5834 48.6001L33.1584 48.3593C29.8481 46.4864 27.0941 43.7685 25.1776 40.4832C23.2612 37.1978 22.2509 33.4627 22.2501 29.6593V29.4609C22.2456 28.9593 22.3744 28.4654 22.6233 28.0298C22.8722 27.5943 23.2323 27.2326 23.6668 26.9818L33.5834 21.4001C34.0142 21.1514 34.5028 21.0205 35.0001 21.0205C35.4975 21.0205 35.9861 21.1514 36.4168 21.4001L46.3334 26.9818C46.7679 27.2326 47.128 27.5943 47.3769 28.0298C47.6258 28.4654 47.7546 28.9593 47.7501 29.4609V29.6593C47.7464 33.4655 46.7319 37.2025 44.8104 40.4881C42.8888 43.7737 40.1291 46.49 36.8134 48.3593L36.3884 48.6001C35.9637 48.8352 35.4856 48.9571 35.0001 48.9543ZM35.0001 23.8793L25.0834 29.4609V29.6593C25.0858 32.9617 25.966 36.2041 27.6339 39.0543C29.3017 41.9046 31.6973 44.2603 34.5751 45.8801L35.0001 46.1209L35.4251 45.8801C38.303 44.2603 40.6985 41.9046 42.3664 39.0543C44.0342 36.2041 44.9144 32.9617 44.9168 29.6593V29.4609L35.0001 23.8793Z" fill="white"/>
</svg>
