<svg width="70" height="70" viewBox="0 0 70 70" fill="none" xmlns="http://www.w3.org/2000/svg">
<circle cx="35" cy="35" r="35" fill="#9F2436"/>
<path d="M41.2695 21.7499C41.5244 21.7316 41.7767 21.8117 41.9744 21.9738C42.172 22.1358 42.3 22.3675 42.332 22.6211C43.012 28.7836 40.9401 33.0761 36.1482 35.2543L35.8614 35.3818C31.7176 37.1561 29.9751 40.6943 30.5489 46.1236C30.5773 46.2587 30.5771 46.3982 30.5484 46.5332C30.5196 46.6682 30.4629 46.7957 30.3818 46.9074C30.3008 47.0191 30.1973 47.1126 30.0779 47.1819C29.9585 47.2512 29.8259 47.2947 29.6887 47.3096C29.5515 47.3245 29.4127 47.3105 29.2812 47.2685C29.1497 47.2265 29.0285 47.1574 28.9254 47.0657C28.8222 46.974 28.7394 46.8617 28.6823 46.736C28.6252 46.6104 28.5951 46.4742 28.5939 46.3361C27.9139 40.1736 29.9857 35.8811 34.7776 33.703L35.0645 33.5755C39.2082 31.8011 40.9507 28.263 40.377 22.8336C40.3587 22.5787 40.4388 22.3264 40.6009 22.1288C40.7629 21.9311 40.9946 21.8031 41.2482 21.7711L41.2695 21.7499Z" fill="white"/>
<path d="M38.0288 36.0406C37.9448 36.1382 37.881 36.2514 37.8408 36.3737C37.8007 36.496 37.7851 36.625 37.795 36.7533C37.8049 36.8817 37.84 37.0068 37.8984 37.1215C37.9567 37.2363 38.0372 37.3383 38.1351 37.4219C39.5907 38.6863 40.3982 41.6719 40.3982 46.2619C40.3982 46.3903 40.4235 46.5174 40.4726 46.636C40.5217 46.7546 40.5937 46.8623 40.6845 46.9531C40.7753 47.0439 40.883 47.1159 41.0016 47.165C41.1202 47.2141 41.2473 47.2394 41.3757 47.2394C41.5041 47.2394 41.6312 47.2141 41.7498 47.165C41.8684 47.1159 41.9761 47.0439 42.0669 46.9531C42.1577 46.8623 42.2297 46.7546 42.2788 46.636C42.3279 46.5174 42.3532 46.3903 42.3532 46.2619C42.3532 41.1088 41.4182 37.6663 39.4101 35.9344C39.3138 35.8485 39.2014 35.7826 39.0793 35.7408C38.9572 35.699 38.828 35.6821 38.6993 35.691C38.5706 35.6999 38.4449 35.7345 38.3298 35.7927C38.2146 35.851 38.1123 35.9316 38.0288 36.03V36.0406ZM28.6576 22.6213C27.9563 27.8594 29.0507 31.5038 32.0363 33.3738C32.2561 33.5147 32.5229 33.5625 32.7779 33.5067C33.033 33.4509 33.2554 33.2961 33.3963 33.0763C33.5372 32.8565 33.585 32.5897 33.5292 32.3347C33.4734 32.0796 33.3186 31.8572 33.0988 31.7163C30.8782 30.3138 30.0069 27.4663 30.6126 22.8763C30.652 22.6198 30.588 22.3582 30.4346 22.149C30.2811 21.9398 30.0509 21.8001 29.7944 21.7606C29.538 21.7212 29.2764 21.7852 29.0672 21.9387C28.858 22.0921 28.7183 22.3223 28.6788 22.5788L28.6576 22.6213ZM38.4326 23.705C38.6773 23.7112 38.9108 23.809 39.0869 23.9791C39.263 24.1492 39.3689 24.3792 39.3836 24.6236C39.3983 24.8679 39.3207 25.1089 39.1663 25.2989C39.0118 25.4889 38.7917 25.6139 38.5494 25.6494H32.5676C32.3073 25.6494 32.0576 25.5468 31.8726 25.3637C31.6876 25.1807 31.5822 24.9321 31.5794 24.6719C31.5826 24.4314 31.6725 24.2 31.8325 24.0204C31.9926 23.8409 32.2121 23.7251 32.4507 23.6944H38.4326V23.705Z" fill="white"/>
<path d="M38.4325 27.615C38.6917 27.5995 38.9465 27.6877 39.1408 27.86C39.3351 28.0324 39.4529 28.2748 39.4684 28.5341C39.4839 28.7933 39.3958 29.0481 39.2234 29.2424C39.0511 29.4367 38.8086 29.5545 38.5493 29.57H32.5675C32.3082 29.5855 32.0534 29.4974 31.8592 29.325C31.6649 29.1527 31.547 28.9102 31.5315 28.651C31.516 28.3917 31.6042 28.1369 31.7765 27.9427C31.9489 27.7484 32.1913 27.6305 32.4506 27.615H38.4325ZM38.4325 39.3663C38.5608 39.3586 38.6895 39.3763 38.811 39.4183C38.9325 39.4604 39.0446 39.5259 39.1408 39.6113C39.237 39.6966 39.3154 39.8001 39.3716 39.9157C39.4279 40.0314 39.4607 40.157 39.4684 40.2853C39.4761 40.4137 39.4584 40.5423 39.4164 40.6639C39.3743 40.7854 39.3088 40.8975 39.2234 40.9937C39.1381 41.0898 39.0346 41.1683 38.919 41.2245C38.8033 41.2807 38.6777 41.3136 38.5493 41.3213H32.5675C32.3227 41.3151 32.0892 41.2173 31.9131 41.0472C31.737 40.8771 31.6312 40.6471 31.6165 40.4027C31.6018 40.1584 31.6793 39.9174 31.8338 39.7274C31.9882 39.5374 32.2084 39.4124 32.4506 39.3769H38.4325V39.3663ZM38.4325 43.2869C38.6772 43.2931 38.9107 43.3909 39.0868 43.561C39.2629 43.7311 39.3688 43.9611 39.3835 44.2054C39.3982 44.4498 39.3206 44.6908 39.1662 44.8808C39.0117 45.0707 38.7916 45.1958 38.5493 45.2313H32.5675C32.3072 45.2313 32.0575 45.1286 31.8725 44.9456C31.6875 44.7626 31.5821 44.514 31.5793 44.2538C31.5825 44.0132 31.6724 43.7819 31.8324 43.6023C31.9925 43.4227 32.212 43.307 32.4506 43.2763H38.4325V43.2869Z" fill="white"/>
</svg>
