<svg width="70" height="70" viewBox="0 0 70 70" fill="none" xmlns="http://www.w3.org/2000/svg">
<circle cx="35" cy="35" r="35" fill="#9F2436"/>
<path d="M47.9221 28.7108C47.9222 28.5679 47.8941 28.4263 47.8394 28.2942C47.7847 28.1621 47.7046 28.0421 47.6035 27.941C47.5025 27.8399 47.3825 27.7597 47.2504 27.705C47.1184 27.6502 46.9768 27.6221 46.8338 27.6221H23.1647C23.0217 27.622 22.8801 27.6501 22.748 27.7048C22.6158 27.7595 22.4958 27.8397 22.3947 27.9408C22.2935 28.0419 22.2134 28.162 22.1587 28.2941C22.104 28.4262 22.0759 28.5678 22.0759 28.7108V44.7705C22.0759 45.2189 22.2541 45.6489 22.5711 45.966C22.8882 46.2831 23.3183 46.4612 23.7667 46.4612H46.2313C46.6797 46.4612 47.1098 46.2831 47.4269 45.966C47.7439 45.6489 47.9221 45.2189 47.9221 44.7705V28.7108Z" stroke="white" stroke-width="2" stroke-miterlimit="10" stroke-linecap="round" stroke-linejoin="round"/>
<path d="M38.9362 27.622H31.0623V24.515C31.0623 23.976 31.4989 23.5388 32.0385 23.5388H37.961C38.4995 23.5388 38.9373 23.976 38.9373 24.515V27.622H38.9362Z" stroke="white" stroke-width="2" stroke-miterlimit="10" stroke-linecap="round" stroke-linejoin="round"/>
<path d="M43.6811 46.4595V31.2856M26.3157 46.4595V31.2856" stroke="white" stroke-width="2" stroke-miterlimit="10" stroke-linecap="round" stroke-linejoin="round"/>
<path d="M37.3002 33.4611C42.9163 32.5511 47.924 28.7119 47.924 28.7119M22.0779 28.7119C22.0779 28.7119 27.091 32.5511 32.6963 33.4611" stroke="white" stroke-width="2" stroke-miterlimit="10" stroke-linecap="round" stroke-linejoin="round"/>
<path d="M37.3541 33.6604C37.3541 34.2834 36.2987 34.7842 35.001 34.7842C33.698 34.7842 32.6426 34.2834 32.6426 33.6604C32.6426 33.5769 32.6587 33.4999 32.6964 33.4229C32.928 32.9157 33.8703 32.5366 35.001 32.5366C36.1264 32.5366 37.0687 32.9157 37.3003 33.4229C37.338 33.4999 37.3541 33.5769 37.3541 33.6604Z" stroke="white" stroke-width="2" stroke-miterlimit="10" stroke-linecap="round" stroke-linejoin="round"/>
</svg>
