<svg width="70" height="70" viewBox="0 0 70 70" fill="none" xmlns="http://www.w3.org/2000/svg">
<circle cx="35" cy="35" r="35" fill="#9F2436"/>
<path fill-rule="evenodd" clip-rule="evenodd" d="M22.75 28.4726V41.5451C22.75 42.3326 23.275 43.0151 24.0625 43.2426L35.4375 46.2701C35.7175 46.3576 36.0325 46.3576 36.3125 46.2701L47.6875 43.2426C48.475 43.0151 49 42.3326 49 41.5451V28.4726C49 27.6851 48.475 27.0026 47.6875 26.7751L36.3125 23.7301C36.0232 23.6775 35.7268 23.6775 35.4375 23.7301L24.0625 26.7751C23.275 27.0026 22.75 27.6851 22.75 28.4726ZM35 44.3801L24.5 41.5976V29.7501L35 32.5676V44.3801ZM24.5 28.0001L28.875 26.8276L40.25 29.8551L35.875 31.0276L24.5 28.0001ZM47.25 41.5976L36.75 44.3801V32.5676L40.25 31.6051V35.8751L43.75 34.9476V30.6776L47.25 29.7501V41.5976ZM43.75 28.9276L32.375 25.9001L35.875 24.9726L47.25 28.0001L43.75 28.9276Z" fill="white"/>
</svg>
